<mxfile host="app.diagrams.net" modified="2023-10-27T23:04:34.428Z" agent="Mozilla/5.0 (Windows NT 10.0; Win64; x64) AppleWebKit/537.36 (KHTML, like Gecko) Chrome/118.0.0.0 Safari/537.36 Edg/118.0.2088.69" etag="cLpY_KbkwCEqUyt8sBLP" version="22.0.8" type="google">
  <diagram name="Página-1" id="Wo29u7KEwnwq65Jea3LO">
    <mxGraphModel grid="1" page="1" gridSize="10" guides="1" tooltips="1" connect="1" arrows="1" fold="1" pageScale="1" pageWidth="850" pageHeight="1100" math="0" shadow="0">
      <root>
        <mxCell id="0" />
        <mxCell id="1" parent="0" />
        <mxCell id="GvWvxihh_qLRC0iGV0OP-5" style="rounded=0;orthogonalLoop=1;jettySize=auto;html=1;exitX=0;exitY=0.5;exitDx=0;exitDy=0;entryX=1;entryY=0;entryDx=0;entryDy=0;strokeWidth=2;startArrow=classic;startFill=1;" edge="1" parent="1" source="GvWvxihh_qLRC0iGV0OP-1" target="GvWvxihh_qLRC0iGV0OP-3">
          <mxGeometry relative="1" as="geometry" />
        </mxCell>
        <mxCell id="GvWvxihh_qLRC0iGV0OP-7" value="5" style="edgeLabel;html=1;align=center;verticalAlign=middle;resizable=0;points=[];fontSize=20;" connectable="0" vertex="1" parent="GvWvxihh_qLRC0iGV0OP-5">
          <mxGeometry x="0.6563" y="-1" relative="1" as="geometry">
            <mxPoint x="-25" y="-8" as="offset" />
          </mxGeometry>
        </mxCell>
        <mxCell id="GvWvxihh_qLRC0iGV0OP-11" value="7" style="edgeLabel;html=1;align=center;verticalAlign=middle;resizable=0;points=[];fontSize=20;" connectable="0" vertex="1" parent="GvWvxihh_qLRC0iGV0OP-5">
          <mxGeometry x="-0.7058" y="-2" relative="1" as="geometry">
            <mxPoint x="12" y="-31" as="offset" />
          </mxGeometry>
        </mxCell>
        <mxCell id="GvWvxihh_qLRC0iGV0OP-6" style="rounded=0;orthogonalLoop=1;jettySize=auto;html=1;exitX=1;exitY=0.5;exitDx=0;exitDy=0;entryX=0;entryY=0;entryDx=0;entryDy=0;strokeWidth=2;startArrow=classic;startFill=1;" edge="1" parent="1" source="GvWvxihh_qLRC0iGV0OP-1" target="GvWvxihh_qLRC0iGV0OP-2">
          <mxGeometry relative="1" as="geometry" />
        </mxCell>
        <mxCell id="GvWvxihh_qLRC0iGV0OP-8" value="&lt;font style=&quot;font-size: 20px;&quot;&gt;3&lt;/font&gt;" style="edgeLabel;html=1;align=center;verticalAlign=middle;resizable=0;points=[];" connectable="0" vertex="1" parent="GvWvxihh_qLRC0iGV0OP-6">
          <mxGeometry x="0.7719" y="1" relative="1" as="geometry">
            <mxPoint x="12" y="-16" as="offset" />
          </mxGeometry>
        </mxCell>
        <mxCell id="GvWvxihh_qLRC0iGV0OP-19" value="2" style="edgeLabel;html=1;align=center;verticalAlign=middle;resizable=0;points=[];fontSize=20;" connectable="0" vertex="1" parent="GvWvxihh_qLRC0iGV0OP-6">
          <mxGeometry x="-0.8461" y="1" relative="1" as="geometry">
            <mxPoint x="3" y="-19" as="offset" />
          </mxGeometry>
        </mxCell>
        <mxCell id="GvWvxihh_qLRC0iGV0OP-9" style="edgeStyle=orthogonalEdgeStyle;rounded=0;orthogonalLoop=1;jettySize=auto;html=1;exitX=0.5;exitY=1;exitDx=0;exitDy=0;entryX=0.5;entryY=0;entryDx=0;entryDy=0;strokeWidth=2;startArrow=classic;startFill=1;" edge="1" parent="1" source="GvWvxihh_qLRC0iGV0OP-1" target="GvWvxihh_qLRC0iGV0OP-4">
          <mxGeometry relative="1" as="geometry" />
        </mxCell>
        <mxCell id="GvWvxihh_qLRC0iGV0OP-10" value="8" style="edgeLabel;html=1;align=center;verticalAlign=middle;resizable=0;points=[];fontSize=20;" connectable="0" vertex="1" parent="GvWvxihh_qLRC0iGV0OP-9">
          <mxGeometry x="0.825" y="3" relative="1" as="geometry">
            <mxPoint x="-4" y="-15" as="offset" />
          </mxGeometry>
        </mxCell>
        <mxCell id="GvWvxihh_qLRC0iGV0OP-22" value="6" style="edgeLabel;html=1;align=center;verticalAlign=middle;resizable=0;points=[];fontSize=20;" connectable="0" vertex="1" parent="GvWvxihh_qLRC0iGV0OP-9">
          <mxGeometry x="-0.875" relative="1" as="geometry">
            <mxPoint x="-2" y="15" as="offset" />
          </mxGeometry>
        </mxCell>
        <mxCell id="GvWvxihh_qLRC0iGV0OP-1" value="A" style="ellipse;whiteSpace=wrap;html=1;aspect=fixed;fontSize=40;fontFamily=Tahoma;" vertex="1" parent="1">
          <mxGeometry x="400" y="40" width="80" height="80" as="geometry" />
        </mxCell>
        <mxCell id="GvWvxihh_qLRC0iGV0OP-2" value="C" style="ellipse;whiteSpace=wrap;html=1;aspect=fixed;fontSize=40;fontFamily=Tahoma;" vertex="1" parent="1">
          <mxGeometry x="680" y="200" width="80" height="80" as="geometry" />
        </mxCell>
        <mxCell id="GvWvxihh_qLRC0iGV0OP-12" style="rounded=0;orthogonalLoop=1;jettySize=auto;html=1;exitX=1;exitY=1;exitDx=0;exitDy=0;entryX=0;entryY=0;entryDx=0;entryDy=0;startArrow=classic;startFill=1;strokeWidth=2;" edge="1" parent="1" source="GvWvxihh_qLRC0iGV0OP-3" target="GvWvxihh_qLRC0iGV0OP-4">
          <mxGeometry relative="1" as="geometry" />
        </mxCell>
        <mxCell id="GvWvxihh_qLRC0iGV0OP-17" value="6" style="edgeLabel;html=1;align=center;verticalAlign=middle;resizable=0;points=[];fontSize=20;" connectable="0" vertex="1" parent="GvWvxihh_qLRC0iGV0OP-12">
          <mxGeometry x="0.8323" relative="1" as="geometry">
            <mxPoint y="-23" as="offset" />
          </mxGeometry>
        </mxCell>
        <mxCell id="GvWvxihh_qLRC0iGV0OP-21" value="3" style="edgeLabel;html=1;align=center;verticalAlign=middle;resizable=0;points=[];fontSize=20;" connectable="0" vertex="1" parent="GvWvxihh_qLRC0iGV0OP-12">
          <mxGeometry x="-0.8686" relative="1" as="geometry">
            <mxPoint x="7" y="-15" as="offset" />
          </mxGeometry>
        </mxCell>
        <mxCell id="GvWvxihh_qLRC0iGV0OP-13" style="rounded=0;orthogonalLoop=1;jettySize=auto;html=1;exitX=0;exitY=0.5;exitDx=0;exitDy=0;entryX=1;entryY=0.5;entryDx=0;entryDy=0;edgeStyle=orthogonalEdgeStyle;curved=1;endSize=6;strokeWidth=2;startArrow=classic;startFill=1;" edge="1" parent="1" source="GvWvxihh_qLRC0iGV0OP-3" target="GvWvxihh_qLRC0iGV0OP-2">
          <mxGeometry relative="1" as="geometry">
            <Array as="points">
              <mxPoint x="60" y="240" />
              <mxPoint x="60" y="460" />
              <mxPoint x="830" y="460" />
              <mxPoint x="830" y="240" />
            </Array>
          </mxGeometry>
        </mxCell>
        <mxCell id="GvWvxihh_qLRC0iGV0OP-16" value="1" style="edgeLabel;html=1;align=center;verticalAlign=middle;resizable=0;points=[];fontSize=20;" connectable="0" vertex="1" parent="GvWvxihh_qLRC0iGV0OP-13">
          <mxGeometry x="0.9657" relative="1" as="geometry">
            <mxPoint y="-20" as="offset" />
          </mxGeometry>
        </mxCell>
        <mxCell id="GvWvxihh_qLRC0iGV0OP-20" value="6" style="edgeLabel;html=1;align=center;verticalAlign=middle;resizable=0;points=[];fontSize=20;" connectable="0" vertex="1" parent="GvWvxihh_qLRC0iGV0OP-13">
          <mxGeometry x="-0.9791" y="1" relative="1" as="geometry">
            <mxPoint x="-11" y="-15" as="offset" />
          </mxGeometry>
        </mxCell>
        <mxCell id="GvWvxihh_qLRC0iGV0OP-3" value="B" style="ellipse;whiteSpace=wrap;html=1;aspect=fixed;fontSize=40;fontFamily=Tahoma;" vertex="1" parent="1">
          <mxGeometry x="120" y="200" width="80" height="80" as="geometry" />
        </mxCell>
        <mxCell id="GvWvxihh_qLRC0iGV0OP-14" style="rounded=0;orthogonalLoop=1;jettySize=auto;html=1;exitX=1;exitY=0;exitDx=0;exitDy=0;entryX=0;entryY=1;entryDx=0;entryDy=0;startArrow=classic;startFill=1;strokeWidth=2;" edge="1" parent="1" source="GvWvxihh_qLRC0iGV0OP-4" target="GvWvxihh_qLRC0iGV0OP-2">
          <mxGeometry relative="1" as="geometry" />
        </mxCell>
        <mxCell id="GvWvxihh_qLRC0iGV0OP-18" value="5" style="edgeLabel;html=1;align=center;verticalAlign=middle;resizable=0;points=[];fontSize=20;" connectable="0" vertex="1" parent="GvWvxihh_qLRC0iGV0OP-14">
          <mxGeometry x="-0.8181" y="1" relative="1" as="geometry">
            <mxPoint y="-22" as="offset" />
          </mxGeometry>
        </mxCell>
        <mxCell id="GvWvxihh_qLRC0iGV0OP-23" value="1" style="edgeLabel;html=1;align=center;verticalAlign=middle;resizable=0;points=[];fontSize=20;" connectable="0" vertex="1" parent="GvWvxihh_qLRC0iGV0OP-14">
          <mxGeometry x="0.8283" y="1" relative="1" as="geometry">
            <mxPoint x="-2" y="-16" as="offset" />
          </mxGeometry>
        </mxCell>
        <mxCell id="GvWvxihh_qLRC0iGV0OP-4" value="D" style="ellipse;whiteSpace=wrap;html=1;aspect=fixed;fontSize=40;fontFamily=Tahoma;" vertex="1" parent="1">
          <mxGeometry x="400" y="360" width="80" height="80" as="geometry" />
        </mxCell>
        <mxCell id="GvWvxihh_qLRC0iGV0OP-15" value="Nota: El número encima de la línea indica la distancia de la ruta en la misma dirección de la flecha" style="text;html=1;align=center;verticalAlign=middle;resizable=0;points=[];autosize=1;strokeColor=none;fillColor=none;fontSize=16;fontStyle=1" vertex="1" parent="1">
          <mxGeometry x="55" y="480" width="770" height="30" as="geometry" />
        </mxCell>
      </root>
    </mxGraphModel>
  </diagram>
</mxfile>
